<svg id="bus-15" xmlns="http://www.w3.org/2000/svg" xmlns:xlink="http://www.w3.org/1999/xlink" x="0px" y="0px" viewBox="0 0 15 15" style="enable-background:new 0 0 15 15;" xml:space="preserve">
	<style type="text/css">
		.bus01{fill:#FF0000;}
		.bus02{fill:#FFFFFF;}
	</style>
	<path class="bus01" d="M4,0C2.6,0,1,0.7,1,2.7v5.5V12c0,0,0,1,1,1v1c0,0,0,1,1,1s1-1,1-1v-1h7v1c0,0,0,1,1,1s1-1,1-1v-1c0,0,1,0,1-1V2.7
		c0-2-1.2-2.7-2.6-2.7H4z"/>
	<path class="bus02" d="M4.2,1.5h6.5c0.1,0,0.2,0.1,0.2,0.2S10.9,2,10.8,2H4.2C4.1,2,4,1.9,4,1.8S4.1,1.5,4.2,1.5z"/>
	<path class="bus02" d="M3,3h9c1,0,1,1,1,1v3c0,0,0,1-1,1H3C2,8,2,7,2,7V4C2,4,2,3,3,3z"/>
	<circle class="bus02" cx="3" cy="11" r="1"/>
	<circle class="bus02" cx="12" cy="11" r="1"/>
</svg>
